# xmcd CD database file
#
# Track frame offsets:
#	150
#	18307
#	38042
#	64627
#
# Disc length: 1106 seconds
#
# Revision: 0
# Processed by: cddbd v1.4PL0 Copyright (c) Steve Scherf et al.
# Submitted via: CDex 1.50
#
DISCID=27045004
DTITLE=Kirsty MacColl - Innocence
DYEAR=1989
DGENRE=Country
TTITLE0=Innocence (Remix)
TTITLE1=No Victims
TTITLE2=Innocence (The Guilt Mix)
TTITLE3=Clubland
EXTD=YEAR: 1989
EXTT0=
EXTT1=
EXTT2=
EXTT3=
PLAYORDER=
